HIERARCHY
ROOT Root
{
  OFFSET 0.0 0.0 0.0
  CHANNELS 6 Xposition Yposition Zposition Zrotation Yrotation Xrotation
  JOINT Hips
  {
    OFFSET 0.0 100.0 0.0
    CHANNELS 6 Xposition Yposition Zposition Zrotation Yrotation Xrotation
    JOINT Spine1
    {
      OFFSET 5.003913 -0.037094 -0.013727
      CHANNELS 3 Zrotation Yrotation Xrotation
      JOINT Spine2
      {
        OFFSET 7.125363 -1e-06 0.0
        CHANNELS 3 Zrotation Yrotation Xrotation
        JOINT Chest
        {
          OFFSET 7.594027 1e-06 0.0
          CHANNELS 3 Zrotation Yrotation Xrotation
          JOINT Neck1
          {
            OFFSET 26.313086 -0.460272 -0.181672
            CHANNELS 3 Zrotation Yrotation Xrotation
            JOINT Neck2
            {
              OFFSET 8.045911 0.0 0.0
              CHANNELS 3 Zrotation Yrotation Xrotation
              JOINT Head
              {
                OFFSET 6.432774 0.0 0.0
                CHANNELS 3 Zrotation Yrotation Xrotation
                JOINT HeadEnd
                {
                  OFFSET 16.169773 0.06451 0.00362
                  CHANNELS 3 Zrotation Yrotation Xrotation
                }
                JOINT Jaw
                {
                  OFFSET 0.108741 3.12938 0.002639
                  CHANNELS 3 Zrotation Yrotation Xrotation
                }
                JOINT LeftEye
                {
                  OFFSET 4.45173 8.166359 3.206392
                  CHANNELS 3 Zrotation Yrotation Xrotation
                }
                JOINT RightEye
                {
                  OFFSET 4.436895 8.135758 -3.222429
                  CHANNELS 3 Zrotation Yrotation Xrotation
                }
              }
            }
          }
          JOINT LeftShoulder
          {
            OFFSET 23.218927 5.195579 1.621656
            CHANNELS 3 Zrotation Yrotation Xrotation
            JOINT LeftArm
            {
              OFFSET 15.902118 2e-06 -2e-06
              CHANNELS 3 Zrotation Yrotation Xrotation
              JOINT LeftForeArm
              {
                OFFSET 28.739307 0.0 -1e-06
                CHANNELS 3 Zrotation Yrotation Xrotation
                JOINT LeftHand
                {
                  OFFSET 27.093981 -4e-06 0.0
                  CHANNELS 3 Zrotation Yrotation Xrotation
                  JOINT LeftHandThumb1
                  {
                    OFFSET 2.276781 3.380274 0.83384
                    CHANNELS 3 Zrotation Yrotation Xrotation
                    JOINT LeftHandThumb2
                    {
                      OFFSET 4.705309 -1e-06 -1e-06
                      CHANNELS 3 Zrotation Yrotation Xrotation
                      JOINT LeftHandThumb3
                      {
                        OFFSET 2.798515 0.0 3e-06
                        CHANNELS 3 Zrotation Yrotation Xrotation
                        JOINT LeftHandThumbEnd
                        {
                          OFFSET 3.180793 4e-06 -4e-06
                          CHANNELS 3 Zrotation Yrotation Xrotation
                        }
                      }
                    }
                  }
                  JOINT LeftHandIndex1
                  {
                    OFFSET 3.247786 2.352677 0.137192
                    CHANNELS 3 Zrotation Yrotation Xrotation
                    JOINT LeftHandIndex2
                    {
                      OFFSET 6.367095 1e-06 0.0
                      CHANNELS 3 Zrotation Yrotation Xrotation
                      JOINT LeftHandIndex3
                      {
                        OFFSET 3.662364 0.0 0.0
                        CHANNELS 3 Zrotation Yrotation Xrotation
                        JOINT LeftHandIndex4
                        {
                          OFFSET 2.329242 4e-06 -4e-06
                          CHANNELS 3 Zrotation Yrotation Xrotation
                          JOINT LeftHandIndexEnd
                          {
                            OFFSET 2.767823 1e-06 0.0
                            CHANNELS 3 Zrotation Yrotation Xrotation
                          }
                        }
                      }
                    }
                  }
                  JOINT LeftHandMiddle1
                  {
                    OFFSET 3.163612 0.945023 -0.406112
                    CHANNELS 3 Zrotation Yrotation Xrotation
                    JOINT LeftHandMiddle2
                    {
                      OFFSET 6.276789 3e-06 0.0
                      CHANNELS 3 Zrotation Yrotation Xrotation
                      JOINT LeftHandMiddle3
                      {
                        OFFSET 4.35652 -1e-06 4e-06
                        CHANNELS 3 Zrotation Yrotation Xrotation
                        JOINT LeftHandMiddle4
                        {
                          OFFSET 2.996877 0.0 8e-06
                          CHANNELS 3 Zrotation Yrotation Xrotation
                          JOINT LeftHandMiddleEnd
                          {
                            OFFSET 2.323256 3e-06 -4e-06
                            CHANNELS 3 Zrotation Yrotation Xrotation
                          }
                        }
                      }
                    }
                  }
                  JOINT LeftHandRing1
                  {
                    OFFSET 2.882606 -0.309162 0.107445
                    CHANNELS 3 Zrotation Yrotation Xrotation
                    JOINT LeftHandRing2
                    {
                      OFFSET 6.033198 0.0 4e-06
                      CHANNELS 3 Zrotation Yrotation Xrotation
                      JOINT LeftHandRing3
                      {
                        OFFSET 4.350578 3e-06 0.0
                        CHANNELS 3 Zrotation Yrotation Xrotation
                        JOINT LeftHandRing4
                        {
                          OFFSET 2.651321 2e-06 -7e-06
                          CHANNELS 3 Zrotation Yrotation Xrotation
                          JOINT LeftHandRingEnd
                          {
                            OFFSET 1.937663 1e-06 -4e-06
                            CHANNELS 3 Zrotation Yrotation Xrotation
                          }
                        }
                      }
                    }
                  }
                  JOINT LeftHandPinky1
                  {
                    OFFSET 2.865315 -1.525436 0.575687
                    CHANNELS 3 Zrotation Yrotation Xrotation
                    JOINT LeftHandPinky2
                    {
                      OFFSET 5.54936 1e-06 -8e-06
                      CHANNELS 3 Zrotation Yrotation Xrotation
                      JOINT LeftHandPinky3
                      {
                        OFFSET 3.070974 0.0 -4e-06
                        CHANNELS 3 Zrotation Yrotation Xrotation
                        JOINT LeftHandPinky4
                        {
                          OFFSET 1.549672 1e-06 0.0
                          CHANNELS 3 Zrotation Yrotation Xrotation
                          JOINT LeftHandPinkyEnd
                          {
                            OFFSET 1.952123 0.0 0.0
                            CHANNELS 3 Zrotation Yrotation Xrotation
                          }
                        }
                      }
                    }
                  }
                }
              }
            }
          }
          JOINT RightShoulder
          {
            OFFSET 23.161716 5.296122 -1.380114
            CHANNELS 3 Zrotation Yrotation Xrotation
            JOINT RightArm
            {
              OFFSET -16.027195 -2e-06 1.1e-05
              CHANNELS 3 Zrotation Yrotation Xrotation
              JOINT RightForeArm
              {
                OFFSET -28.736639 4e-06 2e-06
                CHANNELS 3 Zrotation Yrotation Xrotation
                JOINT RightHand
                {
                  OFFSET -27.133619 6e-06 0.0
                  CHANNELS 3 Zrotation Yrotation Xrotation
                  JOINT RightHandThumb1
                  {
                    OFFSET -2.274328 -3.351035 -0.83067
                    CHANNELS 3 Zrotation Yrotation Xrotation
                    JOINT RightHandThumb2
                    {
                      OFFSET -4.703594 -3e-06 2e-06
                      CHANNELS 3 Zrotation Yrotation Xrotation
                      JOINT RightHandThumb3
                      {
                        OFFSET -2.794935 -4e-06 -3e-06
                        CHANNELS 3 Zrotation Yrotation Xrotation
                        JOINT RightHandThumbEnd
                        {
                          OFFSET -3.183852 4e-06 1e-06
                          CHANNELS 3 Zrotation Yrotation Xrotation
                        }
                      }
                    }
                  }
                  JOINT RightHandIndex1
                  {
                    OFFSET -3.253496 -2.33755 -0.127667
                    CHANNELS 3 Zrotation Yrotation Xrotation
                    JOINT RightHandIndex2
                    {
                      OFFSET -6.344434 0.0 0.0
                      CHANNELS 3 Zrotation Yrotation Xrotation
                      JOINT RightHandIndex3
                      {
                        OFFSET -3.654871 0.0 -8e-06
                        CHANNELS 3 Zrotation Yrotation Xrotation
                        JOINT RightHandIndex4
                        {
                          OFFSET -2.327586 -1e-06 0.0
                          CHANNELS 3 Zrotation Yrotation Xrotation
                          JOINT RightHandIndexEnd
                          {
                            OFFSET -2.770001 3e-06 8e-06
                            CHANNELS 3 Zrotation Yrotation Xrotation
                          }
                        }
                      }
                    }
                  }
                  JOINT RightHandMiddle1
                  {
                    OFFSET -3.168223 -0.944764 0.411762
                    CHANNELS 3 Zrotation Yrotation Xrotation
                    JOINT RightHandMiddle2
                    {
                      OFFSET -6.266691 -1e-06 -4e-06
                      CHANNELS 3 Zrotation Yrotation Xrotation
                      JOINT RightHandMiddle3
                      {
                        OFFSET -4.348901 0.0 0.0
                        CHANNELS 3 Zrotation Yrotation Xrotation
                        JOINT RightHandMiddle4
                        {
                          OFFSET -3.00024 2e-06 -4e-06
                          CHANNELS 3 Zrotation Yrotation Xrotation
                          JOINT RightHandMiddleEnd
                          {
                            OFFSET -2.321477 -4e-06 -4e-06
                            CHANNELS 3 Zrotation Yrotation Xrotation
                          }
                        }
                      }
                    }
                  }
                  JOINT RightHandRing1
                  {
                    OFFSET -2.885654 0.293261 -0.119232
                    CHANNELS 3 Zrotation Yrotation Xrotation
                    JOINT RightHandRing2
                    {
                      OFFSET -6.032835 -1e-06 -4e-06
                      CHANNELS 3 Zrotation Yrotation Xrotation
                      JOINT RightHandRing3
                      {
                        OFFSET -4.33881 0.0 -4e-06
                        CHANNELS 3 Zrotation Yrotation Xrotation
                        JOINT RightHandRing4
                        {
                          OFFSET -2.654903 -4e-06 -4e-06
                          CHANNELS 3 Zrotation Yrotation Xrotation
                          JOINT RightHandRingEnd
                          {
                            OFFSET -1.935122 0.0 4e-06
                            CHANNELS 3 Zrotation Yrotation Xrotation
                          }
                        }
                      }
                    }
                  }
                  JOINT RightHandPinky1
                  {
                    OFFSET -2.866241 1.503904 -0.60527
                    CHANNELS 3 Zrotation Yrotation Xrotation
                    JOINT RightHandPinky2
                    {
                      OFFSET -5.553177 -2e-06 0.0
                      CHANNELS 3 Zrotation Yrotation Xrotation
                      JOINT RightHandPinky3
                      {
                        OFFSET -3.062664 -1e-06 -4e-06
                        CHANNELS 3 Zrotation Yrotation Xrotation
                        JOINT RightHandPinky4
                        {
                          OFFSET -1.546529 2e-06 4e-06
                          CHANNELS 3 Zrotation Yrotation Xrotation
                          JOINT RightHandPinkyEnd
                          {
                            OFFSET -1.952341 0.0 -4e-06
                            CHANNELS 3 Zrotation Yrotation Xrotation
                          }
                        }
                      }
                    }
                  }
                }
              }
            }
          }
        }
      }
    }
    JOINT LeftLeg
    {
      OFFSET -8.443107 2.567604 10.043214
      CHANNELS 3 Zrotation Yrotation Xrotation
      JOINT LeftShin
      {
        OFFSET 43.229198 1e-06 -1e-06
        CHANNELS 3 Zrotation Yrotation Xrotation
        JOINT LeftFoot
        {
          OFFSET 42.298611 1e-06 1e-06
          CHANNELS 3 Zrotation Yrotation Xrotation
          JOINT LeftToeBase
          {
            OFFSET 14.165858 1e-06 0.0
            CHANNELS 3 Zrotation Yrotation Xrotation
            JOINT LeftToeEnd
            {
              OFFSET 6.7141 -0.234461 0.0
              CHANNELS 3 Zrotation Yrotation Xrotation
            }
          }
        }
      }
    }
    JOINT RightLeg
    {
      OFFSET -8.303923 2.592729 -10.047278
      CHANNELS 3 Zrotation Yrotation Xrotation
      JOINT RightShin
      {
        OFFSET -43.369682 0.0 1e-06
        CHANNELS 3 Zrotation Yrotation Xrotation
        JOINT RightFoot
        {
          OFFSET -42.260784 4e-06 2e-06
          CHANNELS 3 Zrotation Yrotation Xrotation
          JOINT RightToeBase
          {
            OFFSET -14.222245 -2e-06 -1e-06
            CHANNELS 3 Zrotation Yrotation Xrotation
            JOINT RightToeEnd
            {
              OFFSET -6.660062 0.232574 -2e-06
              CHANNELS 3 Zrotation Yrotation Xrotation
            }
          }
        }
      }
    }
  }
}
MOTION
Frames: 4
Frame Time: 0.03333333333333333
0.0 0.0 0.0 0.0 -0.0 0.0 -17.083069 48.709801 110.555351 82.771057 -68.181099 96.922134 7.264341 -0.050789 0.534625 -6.441654 -0.290234 0.877775 20.509808 1.510203 0.815762 28.609962 -0.884304 1.690407 -2.844523 -0.585971 -0.631586 -24.400255 -1.337635 -2.418122 6e-06 0.0 -0.0 -0.26308 -0.062576 -0.00243 -0.174378 0.044942 0.048512 -0.097681 -0.167244 -0.063231 -35.868736 -51.450249 35.8256 104.280998 -2.564499 -32.236641 8.336776 0.021604 0.053371 88.100342 78.969719 85.79422 17.636625 -26.322735 52.411205 -19.466661 -14.395596 29.410395 -1e-06 -8.774821 -2e-06 16.116249 -18.475922 5.797755 -0.609777 -1.795654 -3.889328 -4.807088 -11.046812 -2.93785 4e-06 -20.976021 -1e-06 -5.01997 -25.03356 -4.031882 6e-06 -0.0 0.0 -10.634535 -5.686973 -3.565589 10.573274 -17.922955 -3.113901 3e-06 -13.821213 0.0 -0.501776 -31.181507 -4.027017 -10.432354 -58.738781 6.616908 -13.982714 -7.150199 -2.875042 13.772729 -8.401492 -3.218241 0.347734 -34.211555 0.771653 -0.963029 -17.733372 2.621019 0.0 -1e-06 -0.0 -17.346418 -20.095221 -4.201783 21.757557 -1.638374 3.866427 1e-06 -6.338823 1e-06 -1.697588 -22.591745 -6.194008 -0.0 -3e-06 -2e-06 157.768921 -60.534279 19.88463 74.887878 1.742319 -73.394135 30.988636 0.839479 -0.331447 60.213364 55.936695 59.88158 22.182121 -20.375896 49.933331 -16.701818 -16.743528 28.47654 -3e-06 -12.690601 -1e-06 15.353277 -17.643209 2.608929 -0.105919 -1.513857 -4.275882 -5.039041 -5.612873 -2.953558 4e-06 -11.020528 -3e-06 -6.111298 -15.895338 -3.840475 0.0 -1e-06 -1e-06 -10.283371 -5.680291 -4.341841 11.028296 -11.30241 -2.372635 -1.384269 -14.238587 -6.320123 -0.625438 -26.924198 -3.827604 -3.414074 -48.226173 -4.43075 -13.708527 -7.363478 -3.720942 18.141151 -14.052745 -3.242673 7e-06 -18.787275 -3e-06 -0.429712 -8.456047 2.555504 1e-06 2e-06 1e-06 -15.923538 -20.094492 -5.473588 30.419207 -7.190828 1.735927 1e-06 -8.162929 -0.0 -1.861898 -22.861479 -6.167947 -1e-06 -2e-06 -1e-06 125.748726 -8.972337 1.247095 101.609299 -2.053441 -0.074464 -85.262932 0.865201 -7.316624 -17.60755 1.88164 2.254529 -0.999999 -0.0 0.0 -63.956657 1.765593 3.633565 107.330147 0.082359 -0.09506 -91.492249 1.774421 -2.947293 -34.07959 0.932191 1.308151 -1.000002 0.0 0.0 
0.0 0.0 0.0 0.0 -0.0 0.0 -17.375957 48.979294 111.394676 83.161613 -68.163528 97.46907 7.505131 -0.260806 0.4373 -6.360707 -0.263968 0.846899 20.533487 1.006112 0.634916 29.044966 -0.185791 1.777214 -2.840545 -0.671122 -0.711926 -24.360106 -1.862688 -2.543974 6e-06 -0.0 -0.0 -0.262943 -0.042238 -0.005339 -0.219081 0.040216 0.031601 -0.148885 -0.124003 -0.05205 -35.691433 -51.931431 35.784641 104.472145 -2.140693 -31.462532 8.531019 0.064223 0.034933 90.142265 78.770645 88.705696 17.636627 -26.322727 52.411186 -19.466658 -14.395598 29.410385 -2e-06 -8.774821 -2e-06 15.959714 -18.43651 5.902339 -0.609776 -1.795654 -3.889328 -4.807088 -11.046807 -2.937851 4e-06 -20.976017 -1e-06 -5.01997 -25.033552 -4.031881 6e-06 -1e-06 0.0 -10.634532 -5.68697 -3.565587 10.573272 -17.922947 -3.113901 3e-06 -13.821205 1e-06 -0.501777 -31.181498 -4.027015 -10.368824 -58.680477 6.546088 -13.982712 -7.150197 -2.875041 13.772727 -8.401491 -3.218242 0.347733 -34.211544 0.771654 -0.963028 -17.733366 2.621019 -0.0 -0.0 0.0 -17.346416 -20.095215 -4.201782 21.757557 -1.638373 3.866427 1e-06 -6.338823 1e-06 -1.697589 -22.59174 -6.194005 -1e-06 -3e-06 -2e-06 157.945236 -59.405865 19.671236 74.254662 3.448857 -72.754486 27.095049 0.271793 -0.342193 58.053616 56.96056 56.853012 22.182106 -20.375891 49.933308 -16.701807 -16.743525 28.476521 -3e-06 -12.690597 2e-06 15.707628 -17.586895 2.40584 -0.105919 -1.513856 -4.27588 -5.039039 -5.61287 -2.953555 3e-06 -11.020519 -3e-06 -6.111296 -15.895328 -3.840471 0.0 -1e-06 -0.0 -10.283367 -5.680285 -4.341836 11.028291 -11.302401 -2.372636 -1.384268 -14.238574 -6.320118 -0.625437 -26.924175 -3.8276 -3.42986 -48.519047 -4.320621 -13.708521 -7.363474 -3.720939 18.141146 -14.052733 -3.242672 5e-06 -18.78726 -2e-06 -0.429712 -8.456041 2.555503 -0.0 0.0 1e-06 -15.92353 -20.094477 -5.473581 30.419197 -7.190823 1.735924 1e-06 -8.162921 -0.0 -1.861904 -22.86146 -6.167938 -2e-06 -4e-06 -1e-06 120.920959 -7.889606 1.308668 108.635124 -1.47915 -0.025544 -87.287582 0.062902 -6.963679 -17.754284 1.921296 2.26593 -1.0 -0.0 0.0 -62.855793 1.315357 3.64431 106.068207 0.404071 -0.063771 -91.535904 1.382237 -2.894967 -34.119106 0.919818 1.316109 -1.000003 0.0 0.0 
0.0 0.0 0.0 0.0 -0.0 0.0 -17.679703 49.198456 112.314606 83.476112 -68.09935 97.959709 7.745229 -0.46842 0.347907 -6.316262 -0.308033 0.8103 20.617023 0.530929 0.476567 29.402609 0.507852 1.916375 -2.841512 -0.759952 -0.737177 -24.29097 -2.301885 -2.587006 6e-06 0.0 0.0 -0.268548 -0.04249 -0.009529 -0.274172 0.025815 0.010041 -0.210279 -0.111915 -0.037955 -35.604084 -52.378593 35.795235 104.639076 -1.883497 -30.827076 8.804974 0.07435 0.031612 92.114815 78.378441 91.378708 17.636629 -26.322729 52.411194 -19.466656 -14.395597 29.410385 -0.0 -8.774821 -2e-06 15.820301 -18.383293 6.003239 -0.609776 -1.795653 -3.889327 -4.807088 -11.046807 -2.93785 5e-06 -20.976013 -0.0 -5.01997 -25.033552 -4.031878 6e-06 -1e-06 0.0 -10.634533 -5.686968 -3.565587 10.573274 -17.922945 -3.1139 3e-06 -13.821203 2e-06 -0.501778 -31.181488 -4.027012 -10.375462 -58.601036 6.555293 -13.982712 -7.150195 -2.875041 13.772727 -8.401489 -3.218241 0.347734 -34.211536 0.771656 -0.963029 -17.733366 2.621021 -0.0 -0.0 -0.0 -17.346416 -20.095213 -4.201781 21.757557 -1.638375 3.866428 2e-06 -6.338821 1e-06 -1.69759 -22.591742 -6.194004 -0.0 -5e-06 -2e-06 157.873032 -58.699738 19.977072 74.278214 4.157887 -71.621269 24.605303 -0.156948 -0.311822 57.011139 57.732967 55.538536 22.182116 -20.375891 49.933308 -16.701811 -16.743528 28.476526 -4e-06 -12.6906 0.0 15.983857 -17.491875 2.260455 -0.105919 -1.513856 -4.275879 -5.039041 -5.61287 -2.953556 5e-06 -11.020521 -1e-06 -6.111297 -15.89533 -3.84047 0.0 0.0 -0.0 -10.283369 -5.680287 -4.341837 11.028293 -11.302403 -2.372631 -1.384268 -14.238579 -6.320121 -0.625438 -26.924183 -3.827601 -3.499772 -48.722862 -4.231143 -13.708523 -7.363474 -3.720936 18.141148 -14.052738 -3.242673 6e-06 -18.787266 -1e-06 -0.42971 -8.456043 2.555503 -1e-06 1e-06 1e-06 -15.923534 -20.094479 -5.473584 30.419205 -7.190825 1.735928 2e-06 -8.162925 -1e-06 -1.8619 -22.861469 -6.167942 -1e-06 -1e-06 -0.0 116.068916 -6.847919 1.347547 115.012505 -0.874987 0.100488 -89.353973 -0.435878 -6.293136 -17.987743 1.960412 2.251226 -0.999999 -0.0 0.0 -61.592937 0.927284 3.548486 104.719185 0.701633 -0.037324 -91.75824 1.006444 -2.71414 -34.13736 0.908583 1.328116 -1.000003 -0.0 -0.0 
0.0 0.0 0.0 0.0 -0.0 0.0 -17.988897 49.341003 113.259483 83.824142 -67.926956 98.227173 7.975948 -0.695034 0.264857 -6.275302 -0.399638 0.791966 20.773531 0.097517 0.360632 29.727898 1.099209 2.049398 -2.849872 -0.827429 -0.682048 -24.159327 -2.642972 -2.594749 6e-06 -1e-06 -0.0 -0.273206 -0.057822 -0.013593 -0.326894 0.009975 -0.012345 -0.266695 -0.127906 -0.022976 -35.565094 -52.813179 35.805138 104.76609 -1.785794 -30.391712 9.045241 0.035051 0.037085 93.542816 77.79731 93.245033 17.636621 -26.322733 52.411194 -19.46666 -14.395597 29.410389 -2e-06 -8.774821 -1e-06 15.724607 -18.301151 6.028832 -0.609777 -1.795653 -3.889328 -4.807088 -11.046811 -2.93785 4e-06 -20.976021 -1e-06 -5.01997 -25.03356 -4.031881 6e-06 -1e-06 0.0 -10.634533 -5.68697 -3.565587 10.573274 -17.922951 -3.113901 2e-06 -13.821213 1e-06 -0.501777 -31.181507 -4.027017 -10.389129 -58.451229 6.556859 -13.982712 -7.150198 -2.875041 13.772729 -8.401493 -3.218243 0.347733 -34.211552 0.771654 -0.963028 -17.73337 2.621019 -0.0 -1e-06 -0.0 -17.346415 -20.095217 -4.20178 21.757555 -1.638374 3.866427 1e-06 -6.338822 1e-06 -1.697589 -22.591742 -6.194006 -0.0 -4e-06 -2e-06 157.639404 -58.269203 20.544619 74.833763 4.258061 -70.554321 23.009542 -0.445382 -0.273388 56.988792 58.509716 55.581795 22.182106 -20.375891 49.933304 -16.701811 -16.743528 28.476528 -3e-06 -12.690598 1e-06 16.183403 -17.366179 2.164261 -0.105919 -1.513855 -4.27588 -5.039039 -5.612871 -2.953556 4e-06 -11.020523 -1e-06 -6.111295 -15.89533 -3.840471 0.0 -1e-06 1e-06 -10.283366 -5.680286 -4.341837 11.028292 -11.302404 -2.372633 -1.384268 -14.238578 -6.32012 -0.625437 -26.924185 -3.8276 -3.552246 -48.841129 -4.173045 -13.708521 -7.363475 -3.720938 18.141146 -14.052739 -3.242674 6e-06 -18.78727 -1e-06 -0.429713 -8.456042 2.555503 0.0 1e-06 -0.0 -15.92353 -20.094482 -5.473582 30.419207 -7.190824 1.735923 3e-06 -8.162927 -1e-06 -1.861901 -22.861467 -6.167941 -2e-06 -3e-06 -1e-06 111.378365 -5.960631 1.391286 120.46373 -0.302456 0.27088 -91.416588 -0.490147 -5.403704 -18.379889 2.003038 2.198445 -0.999999 -1e-06 0.0 -60.181263 0.691037 3.418725 103.344917 0.934391 -0.018735 -91.847054 0.696291 -2.416367 -34.05872 0.89652 1.343984 -1.000002 -0.0 -0.0 
